<?xml version="1.0" encoding="UTF-8"?>
<svg xmlns="http://www.w3.org/2000/svg" xmlns:xlink="http://www.w3.org/1999/xlink" width="33pt" height="33pt" viewBox="0 0 33 33" version="1.1" >
<g fill="none" fill-rule="evenodd" stroke="#000" transform="matrix(1 0 0 -1 0 34)">
<path style=" stroke:none;fill-rule:nonzero;fill:rgb(48.627451%,70.196078%,25.882353%);fill-opacity:1;" d="M 22.390625 4.125 C 19.777344 4.125 17.523438 6.027344 16.5 8.25 C 15.476562 6.027344 13.222656 4.125 10.609375 4.125 C 7.027344 4.125 4.125 7.015625 4.125 10.582031 C 4.125 12.964844 6.183594 15.296875 6.183594 15.296875 L 16.5 28.1875 L 26.894531 15.222656 C 26.894531 15.222656 28.875 12.992188 28.875 10.582031 C 28.875 7.015625 25.972656 4.125 22.390625 4.125 Z M 22.390625 4.125 "/>
<path style=" stroke:none;fill-rule:nonzero;fill:rgb(94.509804%,97.254902%,91.372549%);fill-opacity:1;" d="M 16.5 25.4375 L 7.933594 8.9375 L 11.992188 8.9375 L 16.5 17.875 L 21.007812 8.9375 L 25.066406 8.9375 Z M 16.5 25.4375 "/>
</g>
</svg>
